<svg id="Layer_x0020_1" xmlns="http://www.w3.org/2000/svg" width="54.078" height="58.108" viewBox="0 0 54.078 58.108">
  <g id="_3019144813936" transform="translate(0 0)">
    <path id="Path_1" data-name="Path 1" d="M531.8,400.874V384.987a5.488,5.488,0,0,0-10.976,0v.509a6.486,6.486,0,1,0-12.972,0v-.078a6.408,6.408,0,1,0-12.815,0V393.2a6.016,6.016,0,1,0-12.033,0v19.35a22.031,22.031,0,0,0,22.05,22.03h3.033a26.444,26.444,0,0,0,26.452-26.452A10.871,10.871,0,0,0,531.8,400.874Z" transform="translate(-481.728 -377.748)" fill="#20a6f4"/>
    <path id="Path_2" data-name="Path 2" d="M425.278,753.189v-1.272a4.7,4.7,0,0,1-3.346-1.389,4.65,4.65,0,0,1-1.409-3.365V739.3a4.65,4.65,0,0,1,1.409-3.365,4.745,4.745,0,0,1,8.1,3.365v7.865a4.743,4.743,0,0,1-4.754,4.754v2.543a7.281,7.281,0,0,0,7.3-7.3V739.3a7.288,7.288,0,1,0-14.576,0v7.865a7.281,7.281,0,0,0,7.278,7.3Z" transform="translate(-418 -723.841)" fill="#171b23"/>
    <path id="Path_3" data-name="Path 3" d="M1075.045,1253.267A12.258,12.258,0,0,0,1062.778,1241h-26.354a3.44,3.44,0,0,0-3.424,3.424v1.35a10.821,10.821,0,0,0,10.819,10.819h13.069a1.272,1.272,0,1,0,0-2.543h-13.069a8.283,8.283,0,0,1-8.276-8.276v-1.35a.9.9,0,0,1,.254-.626.942.942,0,0,1,.626-.254h26.354a9.753,9.753,0,0,1,9.743,9.724,1.262,1.262,0,1,0,2.524,0Z" transform="translate(-1020.968 -1222.883)" fill="#171b23"/>
    <path id="Path_4" data-name="Path 4" d="M1689,647.272v11.641a1.262,1.262,0,1,0,2.524,0V647.272a1.262,1.262,0,1,0-2.524,0Z" transform="translate(-1664.133 -639.524)" fill="#171b24"/>
    <path id="Path_5" data-name="Path 5" d="M468.067,338.126h1.272V322.239a6.76,6.76,0,0,0-13.519,0v.509a1.245,1.245,0,0,0,.372.88,1.211,1.211,0,0,0,.9.372,1.269,1.269,0,0,0,1.272-1.252A7.749,7.749,0,0,0,450.615,315a7.749,7.749,0,0,0-7.748,7.748A1.27,1.27,0,0,0,444.119,324a1.211,1.211,0,0,0,.9-.372,1.245,1.245,0,0,0,.372-.88v-.078A7.682,7.682,0,0,0,437.722,315a7.692,7.692,0,0,0-5.439,2.25,7.611,7.611,0,0,0-2.25,5.419v7.787a1.326,1.326,0,0,0,.372.9,1.275,1.275,0,0,0,1.8,0,1.326,1.326,0,0,0,.372-.9,7.288,7.288,0,1,0-14.576,0v19.35a23.313,23.313,0,0,0,23.322,23.3h3.033a27.722,27.722,0,0,0,27.724-27.724,12.282,12.282,0,0,0-3.052-8.1l-.959.841h0l-.939.841a9.694,9.694,0,0,1,2.426,6.417,25.183,25.183,0,0,1-25.2,25.2h-3.033a20.775,20.775,0,0,1-20.8-20.778v-19.35a4.65,4.65,0,0,1,1.409-3.365,4.745,4.745,0,0,1,8.1,3.365,1.326,1.326,0,0,0,.372.9,1.275,1.275,0,0,0,1.8,0,1.326,1.326,0,0,0,.372-.9v-7.787a5.1,5.1,0,0,1,1.506-3.639,5.146,5.146,0,0,1,8.785,3.639v.078A1.27,1.27,0,0,0,444.119,324a1.211,1.211,0,0,0,.9-.372,1.245,1.245,0,0,0,.372-.88,5.214,5.214,0,1,1,10.428,0,1.245,1.245,0,0,0,.372.88,1.211,1.211,0,0,0,.9.372,1.269,1.269,0,0,0,1.272-1.252v-.509a4.206,4.206,0,0,1,7.2-2.974,4.138,4.138,0,0,1,1.252,2.974v15.887a1.216,1.216,0,0,0,.313.841Z" transform="translate(-418 -315)" fill="#171b23"/>
    <path id="Path_6" data-name="Path 6" d="M2351,647.272v11.641a1.272,1.272,0,0,0,2.543,0V647.272a1.272,1.272,0,0,0-2.543,0Z" transform="translate(-2313.181 -639.524)" fill="#171b24"/>
    <path id="Path_7" data-name="Path 7" d="M1651.876,1908A11.89,11.89,0,0,0,1640,1919.876v3.15a1.262,1.262,0,1,0,2.524,0v-3.15a9.352,9.352,0,0,1,9.352-9.332,1.272,1.272,0,0,0,0-2.544Z" transform="translate(-1616.092 -1876.833)" fill="#171b23"/>
  </g>
</svg>
