<svg xmlns="http://www.w3.org/2000/svg" xmlns:xlink="http://www.w3.org/1999/xlink" width="190" height="180" viewBox="0 0 190 180">
  <defs>
    <clipPath id="clip-path">
      <rect id="Rectangle_62" data-name="Rectangle 62" width="190" height="180" transform="translate(713 6662)" fill="#fff" stroke="#707070" stroke-width="1"/>
    </clipPath>
  </defs>
  <g id="draw" transform="translate(-713 -6662)" clip-path="url(#clip-path)">
    <g id="Group_22" data-name="Group 22" transform="translate(-725 551.295)">
      <g id="Group_21" data-name="Group 21" transform="translate(1346 5740)">
        <path id="Path_90" data-name="Path 90" d="M652.412,1665.96,648.85,1632c-13.3,1.5-26.36,3.483-39.5,5.779a1.555,1.555,0,0,0-1.029,2.454q5.225,6.174,10.212,12.587a1.383,1.383,0,0,1,.237,1.346c-1.662,5.066-3.325,10.212-4.829,15.278a1.523,1.523,0,0,0,1.742,1.979C627.872,1669.205,640.142,1667.385,652.412,1665.96Z" transform="translate(-515.003 -1132.924)" fill="#db434a"/>
        <path id="Path_91" data-name="Path 91" d="M859,1535c1.662,11.636,3.325,23.194,5.066,34.831,6.57,2.137,13.062,4.433,19.474,6.808l-3.562-33.96C873.011,1539.987,866.045,1537.454,859,1535Z" transform="translate(-746.131 -1043.603)" fill="#c13037"/>
        <path id="Path_92" data-name="Path 92" d="M2431,1665.96q1.781-16.98,3.563-33.96c13.3,1.5,26.36,3.483,39.5,5.779a1.556,1.556,0,0,1,1.029,2.454q-5.225,6.174-10.212,12.587a1.382,1.382,0,0,0-.238,1.346c1.662,5.066,3.324,10.212,4.829,15.278a1.523,1.523,0,0,1-1.742,1.979C2455.54,1669.205,2443.27,1667.385,2431,1665.96Z" transform="translate(-2193.691 -1132.924)" fill="#db434a"/>
        <path id="Path_93" data-name="Path 93" d="M2455.619,1535c-1.742,11.636-3.4,23.194-5.146,34.831-6.57,2.137-13.062,4.433-19.474,6.808q1.781-16.98,3.563-33.96C2441.528,1539.987,2448.495,1537.454,2455.619,1535Z" transform="translate(-2193.691 -1043.603)" fill="#c13037"/>
        <path id="Path_94" data-name="Path 94" d="M1002.914,1509.746a503.5,503.5,0,0,0-138.847,0c-1.742-11.637-3.4-23.194-5.066-34.831a540.289,540.289,0,0,1,149.059,0C1006.318,1486.552,1004.655,1498.109,1002.914,1509.746Z" transform="translate(-746 -983.518)" fill="#f23c44"/>
        <text id="DRAW-2" data-name="DRAW" transform="translate(167 512)" fill="#fff" font-size="22" font-family="BilcaseDemo-Demo, Bilcase Demo" letter-spacing="0.05em"><tspan x="0" y="0">DRAW</tspan></text>
      </g>
      <g id="Layer_x0020_1" transform="translate(431.863 5071.801)">
        <g id="_2605413728944" transform="translate(1050.902 1050.904)">
          <path id="Path_95" data-name="Path 95" d="M1143.278,1059.513a77.272,77.272,0,0,0,6.586,5.847c1.411,1.142,2.151,2.89,1.68,3.965v.067c-.47,1.21-2.285,1.143-3.9-.134-1.68-1.344-3.361-2.823-4.974-4.3a114.673,114.673,0,0,1-16.332,17.878c2.016,2.218,3.965,4.5,5.78,6.788,0,.067.067.135.134.2,1.21,1.613,1.21,3.36,0,3.831l-1.142.47c-1.143.47-2.89-.336-4.033-1.815-1.008-1.21-1.949-2.42-2.957-3.629l-.807.941-54.1,60.354-17.878,1.613H1051l1.613-18.281,61.093-55.044c-1.075-.874-2.218-1.815-3.293-2.688-1.479-1.143-2.285-2.89-1.815-4.032l.47-1.143c.47-1.21,2.218-1.21,3.831,0,2.352,1.882,4.7,3.831,6.922,5.914a115.1,115.1,0,0,1,17.878-16.4c-1.546-1.613-2.957-3.293-4.3-4.974-1.277-1.613-1.344-3.428-.134-3.9h.067c1.075-.47,2.823.269,3.965,1.747C1139.178,1055.077,1141.195,1057.362,1143.278,1059.513Z" transform="translate(-1051 -1050.904)" fill="#fff" fill-rule="evenodd"/>
          <path id="Path_96" data-name="Path 96" d="M1924.622,1350.318a98.177,98.177,0,0,0-16.668-16.735c-1.479-1.143-2.285-2.89-1.815-4.033.135-.4.336-.739.471-1.143.47-1.21,2.218-1.21,3.831,0a112.625,112.625,0,0,1,19.356,19.423c1.21,1.613,1.21,3.36,0,3.831-.4.134-.739.336-1.143.47C1927.512,1352.6,1925.765,1351.8,1924.622,1350.318Z" transform="translate(-1848.541 -1308.91)" fill="#f2f9f9"/>
          <path id="Path_97" data-name="Path 97" d="M2279.57,1065.36A82.3,82.3,0,0,1,2267,1052.792c-1.142-1.479-2.89-2.218-3.965-1.747h-.067c-1.21.47-1.143,2.285.135,3.9a89.7,89.7,0,0,0,14.248,14.316c1.613,1.277,3.427,1.344,3.9.134v-.067C2281.72,1068.25,2280.981,1066.5,2279.57,1065.36Z" transform="translate(-2180.705 -1050.904)" fill="#f2f9f9"/>
          <path id="Path_98" data-name="Path 98" d="M1942.307,1445.106l2.554-2.89L1934.646,1432l-1.882,1.68L1929,1448.2Z" transform="translate(-1869.99 -1406.387)" fill="#ddf0f0"/>
          <path id="Path_99" data-name="Path 99" d="M1113.773,1457l-61.16,55.111L1051,1530.392h.336l58.674-58.875Z" transform="translate(-1051 -1429.707)" fill="#f2f9f9"/>
          <path id="Path_100" data-name="Path 100" d="M1127.981,1627l-13.307,3.092L1056,1688.967l17.878-1.613Z" transform="translate(-1055.664 -1588.281)" fill="#bad9d7"/>
          <path id="Path_101" data-name="Path 101" d="M2126,1242c1.075,1.075,2.083,2.151,3.092,3.226a114.674,114.674,0,0,0,16.332-17.878c-.806-.807-1.68-1.546-2.42-2.352Z" transform="translate(-2053.75 -1213.299)" fill="#b84e38"/>
          <path id="Path_102" data-name="Path 102" d="M2078.427,1204.692l17-17c-.874-.874-1.748-1.747-2.554-2.688A115.086,115.086,0,0,0,2075,1201.4C2076.142,1202.474,2077.285,1203.55,2078.427,1204.692Z" transform="translate(-2006.178 -1175.988)" fill="#da6939"/>
          <path id="Path_103" data-name="Path 103" d="M2080.9,1488.216c-1.882-2.42-3.831-4.7-5.915-6.99-1.008-1.075-2.016-2.151-3.092-3.226l-3.9,3.965a105.6,105.6,0,0,1,7.729,8.737c1.143,1.479,2.89,2.285,4.033,1.815l1.143-.471C2082.114,1491.576,2082.114,1489.829,2080.9,1488.216Z" transform="translate(-1999.648 -1449.295)" fill="#f79635"/>
          <path id="Path_104" data-name="Path 104" d="M2388.611,1184.847a77.274,77.274,0,0,1-6.587-5.847l-3.024,3.092c.739.807,1.613,1.546,2.42,2.352,1.613,1.479,3.293,2.957,4.973,4.3,1.613,1.277,3.427,1.344,3.9.135v-.067C2390.762,1187.737,2390.022,1185.99,2388.611,1184.847Z" transform="translate(-2289.746 -1170.391)" fill="#f79635"/>
          <path id="Path_105" data-name="Path 105" d="M1910.441,1328.407c-1.613-1.21-3.361-1.21-3.831,0l-.471,1.143c-.47,1.143.336,2.89,1.815,4.033a100.037,100.037,0,0,1,8.939,8l3.9-3.965c-1.142-1.143-2.285-2.218-3.427-3.293C1915.146,1332.238,1912.793,1330.289,1910.441,1328.407Z" transform="translate(-1848.541 -1308.91)" fill="#fbb24a"/>
          <path id="Path_106" data-name="Path 106" d="M2267,1052.792c-1.142-1.479-2.89-2.218-3.965-1.747h-.067c-1.21.47-1.143,2.285.135,3.9,1.344,1.68,2.823,3.361,4.3,4.974.807.941,1.68,1.815,2.554,2.688l3.024-3.092C2270.9,1057.362,2268.883,1055.077,2267,1052.792Z" transform="translate(-2180.705 -1050.904)" fill="#fbb24a"/>
        </g>
        <g id="_2605413726896" transform="translate(1050.895 1050.904)">
          <path id="Path_107" data-name="Path 107" d="M1059.3,1059.513a77.272,77.272,0,0,1-6.586,5.847c-1.411,1.142-2.151,2.89-1.68,3.965v.067c.47,1.21,2.285,1.143,3.9-.134,1.68-1.344,3.36-2.823,4.974-4.3a114.679,114.679,0,0,0,16.332,17.878c-2.016,2.218-3.965,4.5-5.78,6.788,0,.067-.067.135-.134.2-1.21,1.613-1.21,3.36,0,3.831l1.142.47c1.143.47,2.89-.336,4.033-1.815,1.008-1.21,1.949-2.42,2.957-3.629l.807.941,54.1,60.354,17.878,1.613h.336l-1.613-18.281-61.093-55.044c1.075-.874,2.218-1.815,3.293-2.688,1.479-1.143,2.285-2.89,1.815-4.032l-.47-1.143c-.47-1.21-2.218-1.21-3.831,0-2.352,1.882-4.7,3.831-6.922,5.914a115.092,115.092,0,0,0-17.878-16.4c1.546-1.613,2.957-3.293,4.3-4.974,1.277-1.613,1.344-3.428.134-3.9h-.067c-1.075-.47-2.823.269-3.965,1.747C1063.4,1055.077,1061.387,1057.362,1059.3,1059.513Z" transform="translate(-1050.895 -1050.904)" fill="#fff" fill-rule="evenodd"/>
          <path id="Path_108" data-name="Path 108" d="M1332.582,1350.318a98.181,98.181,0,0,1,16.668-16.735c1.479-1.143,2.285-2.89,1.815-4.033-.135-.4-.336-.739-.471-1.143-.47-1.21-2.218-1.21-3.831,0a112.624,112.624,0,0,0-19.356,19.423c-1.21,1.613-1.21,3.36,0,3.831.4.134.739.336,1.143.47C1329.693,1352.6,1331.44,1351.8,1332.582,1350.318Z" transform="translate(-1307.977 -1308.91)" fill="#f2f9f9"/>
          <path id="Path_109" data-name="Path 109" d="M1052.717,1065.36a82.306,82.306,0,0,0,12.568-12.568c1.143-1.479,2.89-2.218,3.965-1.747h.067c1.21.47,1.143,2.285-.134,3.9a89.7,89.7,0,0,1-14.248,14.316c-1.613,1.277-3.428,1.344-3.9.134v-.067C1050.566,1068.25,1051.306,1066.5,1052.717,1065.36Z" transform="translate(-1050.895 -1050.904)" fill="#f2f9f9"/>
          <path id="Path_110" data-name="Path 110" d="M1437.554,1445.106l-2.554-2.89L1445.216,1432l1.882,1.68,3.764,14.517Z" transform="translate(-1409.185 -1406.387)" fill="#ddf0f0"/>
          <path id="Path_111" data-name="Path 111" d="M1615,1457l61.16,55.111,1.613,18.281h-.336l-58.673-58.875Z" transform="translate(-1577.087 -1429.707)" fill="#f2f9f9"/>
          <path id="Path_112" data-name="Path 112" d="M1473,1627l13.307,3.092,58.673,58.875-17.878-1.613Z" transform="translate(-1444.631 -1588.281)" fill="#bad9d7"/>
          <path id="Path_113" data-name="Path 113" d="M1204.423,1242c-1.075,1.075-2.083,2.151-3.092,3.226A114.674,114.674,0,0,1,1185,1227.352c.806-.807,1.68-1.546,2.419-2.352Z" transform="translate(-1175.987 -1213.299)" fill="#b84e38"/>
          <path id="Path_114" data-name="Path 114" d="M1238,1204.692l-17-17c.874-.874,1.747-1.747,2.554-2.688a115.1,115.1,0,0,1,17.878,16.4C1240.289,1202.474,1239.146,1203.55,1238,1204.692Z" transform="translate(-1209.567 -1175.988)" fill="#da6939"/>
          <path id="Path_115" data-name="Path 115" d="M1327.407,1488.216c1.882-2.42,3.831-4.7,5.914-6.99,1.008-1.075,2.016-2.151,3.092-3.226l3.9,3.965a105.552,105.552,0,0,0-7.729,8.737c-1.143,1.479-2.89,2.285-4.032,1.815l-1.143-.471C1326.2,1491.576,1326.2,1489.829,1327.407,1488.216Z" transform="translate(-1307.977 -1449.295)" fill="#f79635"/>
          <path id="Path_116" data-name="Path 116" d="M1052.717,1184.847A77.271,77.271,0,0,0,1059.3,1179l3.024,3.092c-.739.807-1.613,1.546-2.419,2.352-1.613,1.479-3.293,2.957-4.974,4.3-1.613,1.277-3.428,1.344-3.9.135v-.067C1050.566,1187.737,1051.306,1185.99,1052.717,1184.847Z" transform="translate(-1050.895 -1170.391)" fill="#f79635"/>
          <path id="Path_117" data-name="Path 117" d="M1484.35,1328.407c1.613-1.21,3.361-1.21,3.831,0l.471,1.143c.47,1.143-.336,2.89-1.815,4.033a100.02,100.02,0,0,0-8.939,8l-3.9-3.965c1.143-1.143,2.285-2.218,3.428-3.293C1479.646,1332.238,1482,1330.289,1484.35,1328.407Z" transform="translate(-1445.564 -1308.91)" fill="#fbb24a"/>
          <path id="Path_118" data-name="Path 118" d="M1181.982,1052.792c1.143-1.479,2.89-2.218,3.965-1.747h.067c1.21.47,1.143,2.285-.134,3.9-1.344,1.68-2.823,3.361-4.3,4.974-.807.941-1.68,1.815-2.554,2.688l-3.024-3.092C1178.083,1057.362,1180.1,1055.077,1181.982,1052.792Z" transform="translate(-1167.592 -1050.904)" fill="#fbb24a"/>
        </g>
      </g>
    </g>
  </g>
</svg>
