<svg id="Layer_x0020_1" xmlns="http://www.w3.org/2000/svg" width="49.456" height="76.969" viewBox="0 0 49.456 76.969">
  <g id="_3019144015040" transform="translate(0 0)">
    <path id="Path_14" data-name="Path 14" d="M828.38,240.378a5.3,5.3,0,0,0-5.974,4.524l-4.234,28.943-4.2-28.866a5.3,5.3,0,0,0-10.5,1.469l3.093,21.886a5.721,5.721,0,0,0-3.673-1.353,5.619,5.619,0,0,0-5.626,5.626v5.085a5.636,5.636,0,0,0-11.272,0v15.274c0,11.252,8.488,21.074,19.721,21.789,11.562.754,22.524-7.966,22.524-21.654,0-18.077,0-12.045,4.64-46.73A5.3,5.3,0,0,0,828.38,240.378Z" transform="translate(-784.743 -239.082)" fill="#3bdc3b"/>
    <path id="Path_15" data-name="Path 15" d="M791.626,1882h0a5.632,5.632,0,0,0-5.626,5.626v6.883a5.636,5.636,0,0,0,11.272,0v-6.883A5.636,5.636,0,0,0,791.626,1882Z" transform="translate(-784.743 -1849.016)" fill="#3bdc3b"/>
    <path id="Path_16" data-name="Path 16" d="M1398.012,2412h0a11.007,11.007,0,0,0-11-11H1369.9a2.913,2.913,0,0,0-2.9,2.919,8.074,8.074,0,0,0,8.062,8.082h22.949Z" transform="translate(-1354.51 -2357.982)" fill="#3bdc3b"/>
    <path id="Path_17" data-name="Path 17" d="M1690.653,2905A10.628,10.628,0,0,0,1680,2915.653v2.784a1.257,1.257,0,0,0,2.513,0v-2.784a8.153,8.153,0,0,1,8.14-8.159,1.247,1.247,0,1,0,0-2.494Z" transform="translate(-1661.459 -2852.238)" fill="#191e27"/>
    <path id="Path_18" data-name="Path 18" d="M764.637,177.3l.174-1.237a7.472,7.472,0,0,0-.928-.058,6.529,6.529,0,0,0-6.477,5.646v-.019l-2.977,20.455-2.958-20.359h0a6.462,6.462,0,0,0-2.2-4.041,6.532,6.532,0,0,0-4.273-1.6,5.013,5.013,0,0,0-.928.077,6.471,6.471,0,0,0-4.041,2.2,6.578,6.578,0,0,0-1.585,4.273,7.4,7.4,0,0,0,.058.909l3.074,21.886,1.257-.174.812-.947a6.928,6.928,0,0,0-4.485-1.663,6.9,6.9,0,0,0-6.883,6.883v5.085a1.254,1.254,0,0,0,1.257,1.257,1.31,1.31,0,0,0,.889-.367,1.257,1.257,0,0,0,.348-.889,6.7,6.7,0,0,0-2.011-4.853A6.893,6.893,0,0,0,721,214.61v15.274a23.583,23.583,0,0,0,5.974,15.68A21.812,21.812,0,0,0,741.9,252.93c.483.039.967.039,1.45.039A22.148,22.148,0,0,0,763.9,239.435a24.188,24.188,0,0,0,1.837-9.416c0-4.524,0-7.521.077-10.015.058-1.875.155-3.441.309-5.182.5-5.2,1.643-11.852,4.254-31.379v.019a7.527,7.527,0,0,0,.077-.928,6.574,6.574,0,0,0-5.646-6.477l-.174,1.237-.174,1.257a4.034,4.034,0,0,1,3.48,3.983c0,.193-.019.387-.039.58h0c-2.32,17.343-3.48,24.477-4.08,29.62-.29,2.571-.445,4.64-.5,7.192-.077,2.552-.077,5.568-.077,10.092a21.448,21.448,0,0,1-1.663,8.449,19.4,19.4,0,0,1-7.366,8.8,19.977,19.977,0,0,1-10.866,3.209c-.425,0-.87-.019-1.3-.039A19.408,19.408,0,0,1,728.85,243.9a21.143,21.143,0,0,1-5.336-14.017V214.61a4.357,4.357,0,0,1,4.37-4.369A4.416,4.416,0,0,1,731,211.517a4.371,4.371,0,0,1,1.276,3.093,1.254,1.254,0,0,0,1.257,1.257,1.31,1.31,0,0,0,.889-.367,1.257,1.257,0,0,0,.348-.889v-5.085a4.471,4.471,0,0,1,1.3-3.093,4.337,4.337,0,0,1,3.094-1.276A4.274,4.274,0,0,1,742,206.219a1.267,1.267,0,0,0,2.069-1.141l-3.074-21.886a2.829,2.829,0,0,1-.039-.561,4.1,4.1,0,0,1,.967-2.649,3.993,3.993,0,0,1,2.513-1.353,5.108,5.108,0,0,1,.561-.039,4.073,4.073,0,0,1,4,3.48h0l4.2,28.885a1.248,1.248,0,0,0,1.237,1.063,1.233,1.233,0,0,0,1.237-1.063l4.234-28.962h0a3.99,3.99,0,0,1,3.983-3.48,2.927,2.927,0,0,1,.58.039Z" transform="translate(-721 -176)" fill="#191e27"/>
    <path id="Path_19" data-name="Path 19" d="M727.883,1818.257V1817a6.932,6.932,0,0,0-6.883,6.883v6.883a6.89,6.89,0,0,0,11.755,4.872,6.773,6.773,0,0,0,2.011-4.872v-6.883a6.7,6.7,0,0,0-2.011-4.853,6.8,6.8,0,0,0-4.872-2.03v2.513a4.416,4.416,0,0,1,3.113,1.276,4.371,4.371,0,0,1,1.276,3.094v6.883a4.337,4.337,0,0,1-1.276,3.093,4.411,4.411,0,0,1-6.206,0,4.337,4.337,0,0,1-1.276-3.093v-6.883a4.357,4.357,0,0,1,4.37-4.37Z" transform="translate(-721 -1785.273)" fill="#191e27"/>
    <path id="Path_20" data-name="Path 20" d="M1335.506,2348.258A12.245,12.245,0,0,0,1323.267,2336h-17.11a4.168,4.168,0,0,0-2.939,1.238,4.117,4.117,0,0,0-1.218,2.939,9.307,9.307,0,0,0,9.319,9.319h8.642a1.247,1.247,0,1,0,0-2.494h-8.642a6.866,6.866,0,0,1-6.825-6.825,1.734,1.734,0,0,1,.5-1.179,1.635,1.635,0,0,1,1.16-.483h17.11a9.77,9.77,0,0,1,9.744,9.744,1.247,1.247,0,0,0,2.494,0Z" transform="translate(-1290.767 -2294.239)" fill="#191e27"/>
    <path id="Path_21" data-name="Path 21" d="M1374.626,1619h0a5.619,5.619,0,0,0-5.626,5.626v11.968a5.626,5.626,0,0,0,11.252,0v-11.968A5.619,5.619,0,0,0,1374.626,1619Z" transform="translate(-1356.472 -1591.101)" fill="#3bdc3b"/>
    <path id="Path_22" data-name="Path 22" d="M1310.883,1555.257V1554a6.9,6.9,0,0,0-6.883,6.883v11.968a6.883,6.883,0,1,0,13.766,0v-11.968a6.9,6.9,0,0,0-6.883-6.883v2.513a4.357,4.357,0,0,1,4.369,4.37v11.968a4.375,4.375,0,0,1-7.463,3.094,4.434,4.434,0,0,1-1.3-3.094v-11.968a4.47,4.47,0,0,1,1.3-3.093,4.336,4.336,0,0,1,3.094-1.276Z" transform="translate(-1292.728 -1527.358)" fill="#191e27"/>
  </g>
</svg>
