<svg id="Layer_x0020_1" xmlns="http://www.w3.org/2000/svg" width="58.769" height="71.421" viewBox="0 0 58.769 71.421">
  <g id="_3019144816400" transform="translate(0 0)">
    <path id="Path_8" data-name="Path 8" d="M495.689,153.812l-3.959,3.714V125.489a5.16,5.16,0,0,0-5.04-5.306,5.021,5.021,0,0,0-5.04,5.02v-4.551A5.485,5.485,0,0,0,476.283,115a5.378,5.378,0,0,0-5.387,5.367v-.306a4.961,4.961,0,0,0-5.02-5.061,5.038,5.038,0,0,0-5.04,5.04v8.489a4.42,4.42,0,1,0-8.836.184v36.221a18.777,18.777,0,0,0,18.651,18.835,29.218,29.218,0,0,0,21.712-9.652l15.039-16.3a2.787,2.787,0,0,0-.082-3.836h0A8.355,8.355,0,0,0,495.689,153.812Z" transform="translate(-450.123 -113.674)" fill="#f48120"/>
    <path id="Path_9" data-name="Path 9" d="M793,714.326V731.61a1.316,1.316,0,1,0,2.632,0V714.326a1.316,1.316,0,1,0-2.632,0Z" transform="translate(-784.164 -699.471)" fill="#171b23"/>
    <path id="Path_10" data-name="Path 10" d="M1286,314.326v25.446a1.326,1.326,0,0,0,2.653,0V314.326a1.326,1.326,0,0,0-2.653,0Z" transform="translate(-1267.104 -307.633)" fill="#171b23"/>
    <path id="Path_11" data-name="Path 11" d="M1813,552.306v20.61a1.316,1.316,0,1,0,2.632,0v-20.61a1.316,1.316,0,0,0-2.632,0Z" transform="translate(-1783.35 -540.777)" fill="#171b23"/>
    <path id="Path_12" data-name="Path 12" d="M1377.424,2135h-10.2a13.348,13.348,0,0,0-10.162,4.653,1.3,1.3,0,0,0,.123,1.857,1.327,1.327,0,0,0,1.877-.122,10.714,10.714,0,0,1,8.162-3.755h10.2a1.316,1.316,0,1,0,0-2.632Z" transform="translate(-1336.387 -2092.454)" fill="#171b23"/>
    <path id="Path_13" data-name="Path 13" d="M405.016,90.139l-.918-.959-1.734,1.632v-29a6.843,6.843,0,0,0-1.735-4.571,6.4,6.4,0,0,0-2.02-1.51A6.505,6.505,0,0,0,396,55.183a6.34,6.34,0,0,0-6.346,6.346,1.316,1.316,0,1,0,2.632,0V56.979a7.225,7.225,0,0,0-1.816-4.8,6.07,6.07,0,0,0-2.122-1.571A6.42,6.42,0,0,0,385.589,50a6.688,6.688,0,0,0-6.693,6.693,1.326,1.326,0,1,0,2.653,0v-.306a6.416,6.416,0,0,0-1.775-4.469,6.109,6.109,0,0,0-2.02-1.408,6.643,6.643,0,0,0-2.571-.51,6.339,6.339,0,0,0-4.489,1.857,6.423,6.423,0,0,0-1.857,4.51v8.489a1.263,1.263,0,0,0,.388.939,1.3,1.3,0,0,0,.918.388,1.324,1.324,0,0,0,1.326-1.326,5.713,5.713,0,0,0-5.734-5.734,5.622,5.622,0,0,0-2.347.49,5.5,5.5,0,0,0-2.49,2.224,5.971,5.971,0,0,0-.9,3.2V101.26a20.187,20.187,0,0,0,5.836,14.223,19.759,19.759,0,0,0,14.121,5.938,35.1,35.1,0,0,0,7.142-.673,26.044,26.044,0,0,0,8.652-3.428,34.047,34.047,0,0,0,6.918-6l-.979-.877.979.9,15.019-16.3a4.175,4.175,0,0,0,1.081-2.775,4.079,4.079,0,0,0-1.2-2.9,1.346,1.346,0,0,0-.939-.388V90.3l.939-.939A9.688,9.688,0,0,0,404.1,89.18l.918.959.9.959a7,7,0,0,1,9.774.143,1.362,1.362,0,0,0,.939.367V90.3l-.939.939a1.359,1.359,0,0,1,.429,1.02,1.5,1.5,0,0,1-.367.979l-15.039,16.3h0a27.564,27.564,0,0,1-8.754,6.836,23.513,23.513,0,0,1-5.387,1.775,32.69,32.69,0,0,1-6.612.612,17.109,17.109,0,0,1-12.244-5.142,17.566,17.566,0,0,1-5.061-12.366V65.039a3.5,3.5,0,0,1,.857-2.326,2.967,2.967,0,0,1,.959-.694,3.042,3.042,0,0,1,1.265-.245,3,3,0,0,1,2.183.9,3.053,3.053,0,0,1,.918,2.183,1.263,1.263,0,0,0,.388.939,1.3,1.3,0,0,0,.918.388,1.324,1.324,0,0,0,1.326-1.326V56.367a3.617,3.617,0,0,1,1.1-2.632,3.788,3.788,0,0,1,4.142-.775,3.422,3.422,0,0,1,1.592,1.347,3.941,3.941,0,0,1,.592,2.081v.306a1.326,1.326,0,1,0,2.653,0,4.041,4.041,0,0,1,4.04-4.04,3.925,3.925,0,0,1,1.653.347,4,4,0,0,1,1.735,1.612,4.559,4.559,0,0,1,.673,2.367v4.551a1.316,1.316,0,1,0,2.632,0,3.688,3.688,0,0,1,1.1-2.612,3.774,3.774,0,0,1,2.612-1.1,3.722,3.722,0,0,1,1.49.326,3.617,3.617,0,0,1,1.612,1.469,4.256,4.256,0,0,1,.612,2.2V93.853a1.351,1.351,0,0,0,.8,1.224,1.39,1.39,0,0,0,1.449-.245l3.959-3.734Z" transform="translate(-360 -50)" fill="#171b23"/>
  </g>
</svg>
