<svg xmlns="http://www.w3.org/2000/svg" xmlns:xlink="http://www.w3.org/1999/xlink" width="190" height="180" viewBox="0 0 190 180">
  <defs>
    <clipPath id="clip-path">
      <rect id="Rectangle_60" data-name="Rectangle 60" width="190" height="180" transform="translate(124 6666)" fill="#fff" stroke="#707070" stroke-width="1"/>
    </clipPath>
  </defs>
  <g id="win" transform="translate(-124 -6666)" clip-path="url(#clip-path)">
    <g id="Group_25" data-name="Group 25" transform="translate(31 6295.816)">
      <g id="Group_16" data-name="Group 16" transform="translate(93 382.184)">
        <g id="trophy" transform="translate(47.151 0)">
          <g id="Group_2" data-name="Group 2" transform="translate(62.382 16.618)">
            <path id="Path_49" data-name="Path 49" d="M720.521,452.93h-9.5a2.343,2.343,0,0,1,0-4.671h9.5a2.343,2.343,0,0,1,0,4.671Z" transform="translate(-708.875 -448.259)" fill="#f27e00"/>
          </g>
          <g id="Group_3" data-name="Group 3" transform="translate(64.675 6.171)">
            <path id="Path_50" data-name="Path 50" d="M724.915,449.026a2,2,0,0,1-.92-.226c-3.446-1.778-5.788-6.5-3.6-12.076,2.679-6.824,8.621-10.013,13.865-12.827,3.837-2.059,7.461-4,9.666-7.075,1.265-1.762,3.732-6.366-.67-11.06-1.407-1.5-5.422-2.273-8.764-.124a6.683,6.683,0,0,0-2.718,7.088c.319,1.5,1.261,3.3,2.869,3.438a2.284,2.284,0,0,1,1.971,2.514,2.211,2.211,0,0,1-2.313,2.142c-3.228-.281-5.863-3.045-6.713-7.042a11.4,11.4,0,0,1,4.716-12.16c5.087-3.271,11.208-2.126,13.961.81,5.622,5.994,4.079,13.048,1.049,17.268-2.809,3.913-7.05,6.189-11.151,8.39-5.019,2.694-9.76,5.238-11.815,10.472-1.186,3.019-.107,5.2,1.488,6.024a2.427,2.427,0,0,1,1.019,3.111A2.143,2.143,0,0,1,724.915,449.026Z" transform="translate(-719.547 -399.637)" fill="#fba300"/>
          </g>
          <g id="Group_4" data-name="Group 4" transform="translate(18.788 16.618)">
            <path id="Path_51" data-name="Path 51" d="M517.627,452.93h-9.5a2.343,2.343,0,0,1,0-4.671h9.5a2.343,2.343,0,0,1,0,4.671Z" transform="translate(-505.981 -448.259)" fill="#f27e00"/>
          </g>
          <rect id="Rectangle_39" data-name="Rectangle 39" width="6.42" height="39.349" transform="translate(44.269 53.411) rotate(0.097)" fill="#ff9800"/>
          <path id="Path_52" data-name="Path 52" d="M624.508,668.014s.774-.82,3.271-.82,3.131.82,3.131.82v-2.541l-6.4.055Z" transform="translate(-580.253 -602.183)" fill="#c86021"/>
          <ellipse id="Ellipse_10" data-name="Ellipse 10" cx="6.613" cy="6.613" rx="6.613" ry="6.613" transform="translate(40.831 51.293)" fill="#f99109"/>
          <path id="Path_53" data-name="Path 53" d="M615.189,609.641a6.613,6.613,0,0,0-6.613,6.613c0,.2.011.4.028.6a42.289,42.289,0,0,1,6.553-.643,42.951,42.951,0,0,1,6.616.649c.018-.2.029-.4.029-.606A6.613,6.613,0,0,0,615.189,609.641Z" transform="translate(-567.744 -558.347)" fill="#c86021"/>
          <path id="Path_54" data-name="Path 54" d="M602.882,756.923c-.918-3.02-2.088-7.574-2.857-9.058-4.028-7.771-9.417-10.452-13.45-10.445h-.832c-4.034.007-9.428,2.7-13.442,10.5-.761,1.477.234,6.012-.671,9.005h31.251Z" transform="translate(-538.738 -658.671)" fill="#fda300"/>
          <path id="Path_55" data-name="Path 55" d="M584.739,425.633l-20.873-.036-20.873-.036s-.57,21.021,1.534,28.749c3.159,11.6,10.412,16.63,18.428,16.644h.826l.826,0c8.016.014,15.286-4.992,18.485-16.579C585.225,446.656,584.739,425.633,584.739,425.633Z" transform="translate(-516.198 -413.819)" fill="#fda300"/>
          <path id="Path_56" data-name="Path 56" d="M638.676,425.726h-.471v45.357h.386l.826,0c8.016.014,15.286-4.992,18.485-16.579,2.131-7.719,1.645-28.743,1.645-28.743Z" transform="translate(-591.007 -413.949)" fill="#f59209"/>
          <path id="Path_57" data-name="Path 57" d="M598.324,505.592c-5.566-.011-8.04-7.756-9.02-12.1-.87-3.859-1.177-13.018-1.2-20.85l22.014.04c-.056,7.832-.4,16.989-1.279,20.845-.993,4.337-3.489,12.067-9.048,12.067Z" transform="translate(-551.668 -450.784)" fill="#fda300"/>
          <path id="Path_58" data-name="Path 58" d="M563.7,425.6l-20.873-.036s-.293,6,.047,14.01c3.078-.534,9.535-1.12,20.355-1.12,11.493,0,18.273.678,21.236,1.206.373-8.017.107-14.023.107-14.023Z" transform="translate(-516.027 -413.819)" fill="#ba531b"/>
          <rect id="Rectangle_40" data-name="Rectangle 40" width="45.551" height="21.784" transform="translate(24.637 1.64)" fill="#f59209"/>
          <path id="Path_59" data-name="Path 59" d="M533.205,388.4s1.081-1.3,21.777-1.3,23.775,1.306,23.775,1.306V382.25H533.205V388.4Z" transform="translate(-508.568 -379.815)" fill="#ba531b"/>
          <rect id="Rectangle_41" data-name="Rectangle 41" width="50.934" height="6.289" transform="translate(21.946)" fill="#fea402"/>
          <rect id="Rectangle_42" data-name="Rectangle 42" width="44.079" height="11.549" transform="translate(25.373 89.757)" fill="#f59209"/>
          <rect id="Rectangle_43" data-name="Rectangle 43" width="16.916" height="11.549" transform="translate(50.095 89.757)" fill="#e87a02"/>
          <rect id="Rectangle_44" data-name="Rectangle 44" width="14.561" height="5.318" transform="translate(40.132 75.791)" fill="#ee8716"/>
          <path id="Path_60" data-name="Path 60" d="M448.183,436.723c-2.679-6.824-8.621-10.013-13.865-12.827-3.837-2.059-7.461-4-9.666-7.076-1.265-1.762-3.732-6.366.67-11.06,1.407-1.5,5.422-2.273,8.764-.124a6.683,6.683,0,0,1,2.717,7.088,5.946,5.946,0,0,1-1,2.3,3.186,3.186,0,1,0-1.869,5.8,1.978,1.978,0,0,0,.346,0c3.228-.281,5.863-3.045,6.713-7.042a11.4,11.4,0,0,0-4.716-12.16c-5.087-3.271-11.208-2.126-13.961.81-5.622,5.994-4.079,13.048-1.049,17.268,2.809,3.913,7.05,6.189,11.151,8.39,5.019,2.694,9.76,5.238,11.815,10.472,1.185,3.019.107,5.2-1.488,6.024a2.427,2.427,0,0,0-1.02,3.111,2.141,2.141,0,0,0,1.942,1.334,2,2,0,0,0,.92-.226C448.032,447.022,450.374,442.3,448.183,436.723Z" transform="translate(-418.542 -393.466)" fill="#fea200"/>
          <rect id="Rectangle_45" data-name="Rectangle 45" width="50.934" height="0.702" transform="translate(21.946)" fill="#fbd047"/>
          <path id="Path_61" data-name="Path 61" d="M742.4,601.1a3.634,3.634,0,0,1-1.76-2.11,3.8,3.8,0,0,0,1.975,3.184,2.239,2.239,0,0,1,1.01,1.091A2.363,2.363,0,0,0,742.4,601.1Z" transform="translate(-671.429 -549.983)" fill="#e87a02"/>
          <path id="Path_62" data-name="Path 62" d="M779.73,465.566c-1.455-.127-2.364-1.614-2.76-3.006.026.222.062.436.106.642.319,1.5,1.261,3.3,2.869,3.439a2.156,2.156,0,0,1,1.759,1.307A2.27,2.27,0,0,0,779.73,465.566Z" transform="translate(-699.957 -442.869)" fill="#fbd047"/>
          <path id="Path_63" data-name="Path 63" d="M720.615,477.945c2.679-6.824,8.621-10.013,13.865-12.827,3.837-2.059,7.461-4,9.666-7.076a8.674,8.674,0,0,0,1.567-7.271,9.023,9.023,0,0,1-1.782,6.2c-2.205,3.071-5.829,5.016-9.666,7.075-5.243,2.814-11.186,6-13.865,12.827a10.8,10.8,0,0,0-.537,6.735A11.154,11.154,0,0,1,720.615,477.945Z" transform="translate(-654.875 -433.614)" fill="#e06511"/>
          <path id="Path_64" data-name="Path 64" d="M557.016,840.638l-62-.042.028-18.6,62,.042Z" transform="translate(-478.586 -725.071)" fill="#7f302e"/>
        </g>
        <g id="Layer_x0020_1" transform="translate(0 104.048)">
          <path id="Path_44" data-name="Path 44" d="M652.412,1665.96,648.85,1632c-13.3,1.5-26.36,3.483-39.5,5.779a1.555,1.555,0,0,0-1.029,2.454q5.225,6.174,10.212,12.587a1.383,1.383,0,0,1,.237,1.346c-1.662,5.066-3.325,10.212-4.829,15.278a1.523,1.523,0,0,0,1.742,1.979C627.872,1669.205,640.142,1667.385,652.412,1665.96Z" transform="translate(-608.003 -1619.156)" fill="#db434a"/>
          <path id="Path_45" data-name="Path 45" d="M859,1535c1.662,11.636,3.325,23.194,5.066,34.831,6.57,2.137,13.062,4.433,19.474,6.808l-3.562-33.96C873.011,1539.987,866.045,1537.454,859,1535Z" transform="translate(-839.131 -1529.835)" fill="#c13037"/>
          <path id="Path_46" data-name="Path 46" d="M2431,1665.96q1.781-16.98,3.563-33.96c13.3,1.5,26.36,3.483,39.5,5.779a1.556,1.556,0,0,1,1.029,2.454q-5.225,6.174-10.212,12.587a1.382,1.382,0,0,0-.238,1.346c1.662,5.066,3.324,10.212,4.829,15.278a1.523,1.523,0,0,1-1.742,1.979C2455.54,1669.205,2443.27,1667.385,2431,1665.96Z" transform="translate(-2286.691 -1619.156)" fill="#db434a"/>
          <path id="Path_47" data-name="Path 47" d="M2455.619,1535c-1.742,11.636-3.4,23.194-5.146,34.831-6.57,2.137-13.062,4.433-19.474,6.808q1.781-16.98,3.563-33.96C2441.528,1539.987,2448.495,1537.454,2455.619,1535Z" transform="translate(-2286.691 -1529.835)" fill="#c13037"/>
          <path id="Path_48" data-name="Path 48" d="M1002.914,1509.746a503.5,503.5,0,0,0-138.847,0c-1.742-11.637-3.4-23.194-5.066-34.831a540.289,540.289,0,0,1,149.059,0C1006.318,1486.552,1004.655,1498.109,1002.914,1509.746Z" transform="translate(-839.131 -1469.75)" fill="#f23c44"/>
        </g>
      </g>
      <text id="YOU_WIN" data-name="YOU WIN" transform="translate(156 512)" fill="#fff" font-size="22" font-family="BilcaseDemo-Demo, Bilcase Demo" letter-spacing="0.05em"><tspan x="0" y="0">YOU WIN</tspan></text>
    </g>
  </g>
</svg>
